/* XPM */
static char *_ed31e48b3174226fde746bf8897d70alEhMHD0NmWtTdPUj[] = {
/* columns rows colors chars-per-pixel */
"40 40 157 2",
"   c black",
".  c #0D0D0D",
"X  c #141414",
"o  c #141D1A",
"O  c #1B1B1C",
"+  c #1D1E23",
"@  c #1D262F",
"#  c #222222",
"$  c #2B2B2B",
"%  c #202737",
"&  c #202932",
"*  c #333333",
"=  c #353E3D",
"-  c #3C3C3C",
";  c #2F3646",
":  c #3D3E42",
">  c #383F52",
",  c #3A4544",
"<  c #3B424D",
"1  c #3B4154",
"2  c #434343",
"3  c #4C4C4C",
"4  c #47524E",
"5  c #414755",
"6  c #404855",
"7  c #4B4C51",
"8  c #444B5D",
"9  c #484E5E",
"0  c #4B5554",
"q  c #4C5658",
"w  c #545555",
"e  c #54555A",
"r  c #5A5A5A",
"t  c #484E66",
"y  c #4C5363",
"u  c #4D536A",
"i  c #505767",
"p  c #515A64",
"a  c #5D5E62",
"s  c #51566B",
"d  c #545B6C",
"f  c #5A5E6A",
"g  c #555B72",
"h  c #595F75",
"j  c #566062",
"k  c #596365",
"l  c #5F6865",
"z  c #5A636B",
"x  c #5C6375",
"c  c #5F6871",
"v  c #5D6479",
"b  c #646464",
"n  c #636D6F",
"m  c #6B6B6B",
"M  c #68736F",
"N  c #6C6D71",
"B  c #60667C",
"V  c #646B7D",
"C  c None",
"Z  c #6F787F",
"A  c #747474",
"S  c #747E7F",
"D  c #7B7B7B",
"F  c #646A82",
"G  c #6C7384",
"H  c #6B7189",
"J  c #777F81",
"K  c #71778A",
"L  c #747B8E",
"P  c #7C848E",
"I  c #798093",
"U  c #828383",
"Y  c #8C8C8C",
"T  c #868F96",
"R  c #808598",
"E  c #8F9A96",
"W  c #949494",
"Q  c #9C9C9C",
"!  c #848AA2",
"~  c #898EA1",
"^  c #8F94A7",
"/  c #969DA3",
"(  c #9DA8A4",
")  c #9CA5AC",
"_  c #9DA4B4",
"`  c #A3A3A3",
"'  c #ACACAC",
"]  c #A6B1AD",
"[  c #A4ABBE",
"{  c #ADB7B8",
"}  c #B4B4B4",
"|  c #B2BDBC",
" . c #BBBBBB",
".. c #B6C1BD",
"X. c #A9AFC3",
"o. c #AAB1C4",
"O. c #B3BCC5",
"+. c #C4C4C4",
"@. c #C5C6CB",
"#. c #CCCCCC",
"$. c #C3CCD3",
"%. c #CACBD0",
"&. c #C4CCDC",
"*. c #CAD3DA",
"=. c #D4D4D4",
"-. c #D2D3D8",
";. c #DBDBDB",
":. c #DAE4DC",
">. c #C7CDE5",
",. c #D4DEE2",
"<. c #DDDEE3",
"1. c #D4D9EC",
"2. c #D6DDF1",
"3. c #D6E0E1",
"4. c #DBE5E3",
"5. c #D9E2EB",
"6. c #DFE8EF",
"7. c #E3E3E3",
"8. c #E3EDE5",
"9. c #E3EDEF",
"0. c #ECECEC",
"q. c #E6F0E8",
"w. c #E9F3EC",
"e. c #E3ECF5",
"r. c #E9EFFF",
"t. c #E7F0F7",
"y. c #EAF5F2",
"u. c #EEF9F3",
"i. c #EDF5FC",
"p. c #F5F5F5",
"a. c #F2FDF6",
"s. c #F4F5FA",
"d. c #F7FFFC",
"f. c #F5FCFF",
"g. c #F4FEFF",
"h. c #F7FFFF",
"j. c #F5FFFC",
"k. c #F4FDFC",
"l. c #F8F8F8",
"z. c #F9F9F9",
"x. c gray98",
"c. c #FBFBFB",
"v. c #F8FFFB",
"b. c #F9FFFB",
"n. c #F8FFFD",
"m. c #F9FFFD",
"M. c #FBFFFD",
"N. c #F9FEFF",
"B. c #F8FFFF",
"V. c gray99",
"C. c #FDFDFD",
"Z. c #FCFEFD",
"A. c #FDFEFF",
"S. c #FEFEFE",
"D. c #FEFFFF",
"F. c white",
"G. c #FDFDFD",
/* pixels */
"C.C.C.C.C.C.C.C.C.C.C.C.p.p.C.C.i.r.2.&.2.f.f.5.i.f.f.a.y.w.a.b.C.C.C.C.C.C.C.C.",
"C.C.C.C.C.C.C.C.C.C.C.C.l.p.l.C.N.f.r.r.i.f.N.N.i.k.f.j.u.u.v.b.C.C.C.C.C.C.C.C.",
"C.C.C.C.C.C.C.C.C.C.C.l.l.l.p.s.f.>.X.o.[ _ &.N.i.k.N.f.j.a.b.b.C.C.C.C.C.C.C.C.",
"C.C.C.C.C.C.C.C.C.C.l.l.C.l.p.0.1.! u y > ; P e.t.f.N.N.N.f.b.b.C.C.C.C.C.C.C.C.",
"C.C.C.C.C.C.C.C.C.C.p.l.C.C.0.<.X.F 8 y 1 % d O.6.y.N.N.N.f.b.b.C.C.C.C.C.C.C.C.",
"C.C.C.C.C.C.C.C.C.l.p.l.C.C.0.-.V g v I K 9 6 z ,.9.k.N.N.v.v.b.C.C.C.C.C.C.C.C.",
"C.C.C.C.C.C.C.C.C.l.p.l.C.C.7.%.1 t v L L v < @ *.4.i.f.v.a.a.v.C.C.C.C.C.C.C.C.",
"C.C.C.C.C.C.C.C.C.l.0.l.C.C.7.@.s x h d v V y & $.,.y.j.j.u.u.a.C.C.C.C.C.C.C.C.",
"C.C.C.C.C.C.p.p.l.0.p.C.C.0.' U G g y v G v p p ) | 3.f.N.u.w.a.C.C.C.C.C.C.C.C.",
"C.C.C.C.C.C.p.p.l.C.C.p.=.Q A a R v u g v d d c p S { y.N.N.a.q.C.C.C.C.C.C.C.C.",
"C.C.C.C.C.C.p.p.p.C.C.;.W r 3 e ^ H s d d i z C < q S | j.N.b.8.C.C.C.C.C.C.C.C.",
"C.C.C.C.C.C.p.p.p.C.C.+.D r r N ~ H h x x y d C Z k 0 M ..N.b.w.C.C.C.C.C.C.C.C.",
"C.C.C.C.C.C.p.p.C.C.;.Q m m m m K F B G V y y c T n , 4 ( f.b.8.C.C.C.C.C.C.C.C.",
"C.C.C.C.C.C.p.p.C.C.+.A r m b 7 x g v G V y y c C j , 0 ] N.b.:.C.C.C.C.C.C.C.C.",
"C.C.C.C.C.C.l.p.C.C.+.m 3 b m 7 d u d x s 8 p G C l , , E N.b.8.C.C.C.C.C.C.C.C.",
"C.C.C.C.C.C.l.p.p.C.#.A 3 m D m f y 9 y 5 < d P / J = o l :.N.N.C.C.C.C.C.C.C.C.",
"C.C.C.C.C.C.C.C.7.C.' # * w 2 b a U e O + $ : N * w O #  .C.l.C.C.C.C.C.C.C.C.C.",
"C.C.C.C.C.C.C.C.p.C.` * 2 D m - $ D W U D w $ $ 3 A $ X Q C.p.p.C.C.C.C.C.C.C.C.",
"C.C.C.C.C.C.C.C.C.p.} 3 - W ` 2   D =.0.7.Y #   Q Q 2 O Q C.C.7.C.C.C.C.C.C.C.C.",
"C.C.C.C.C.C.C.C.C.0.=.m O U =.Y . W p.C.C.} 3 $ p.W * 2 +.C.C.0.C.C.C.C.C.C.C.C.",
"C.C.C.C.C.C.C.C.p.p.l.W . 3 7.p.A #.0.0.p.=.` ` C.b . m ;.C.C.C.C.C.C.C.C.C.C.C.",
"C.C.C.C.C.C.C.C.0.l.C.+.2 * } C.;.C.7.+.0.p.0.C.7.* . U +.;.p.C.C.C.C.C.C.C.C.C.",
"C.C.C.C.C.C.C.C.p.l.C.l. .w r ;.p.C.#.} 7.C.0.p.D - r Y U  .C.p.C.C.C.C.C.C.C.C.",
"C.C.C.C.C.C.C.C.C.p.7.C.C.D O Y ;.7. .' 7.p.#.} * r ' Q w } C.0.C.C.C.C.C.C.C.C.",
"C.C.C.C.C.C.C.C.C.C.l.0.7.=.` m m p.=.W A Q ;.D m } p.0.=.=.p.C.C.C.C.C.C.C.C.C.",
"C.C.C.C.C.C.C.C.l.C.C.l.l.p.#.Q ` 7.W w 2 A  .A Y #.C.C.0.p.C.C.C.C.C.C.C.C.C.C.",
"C.C.C.C.C.C.C.C.C.C.C.C.C.C.7.} } } 2 X O 2 ` U } 7.C.C.C.C.C.C.C.C.C.C.C.C.C.C.",
"C.C.C.C.C.C.C.C.C.C.C.l.l.l.=.' Q Y $ O # - ` ' +.7.p.p.l.C.C.p.C.C.C.C.C.C.C.C.",
"C.C.C.C.C.C.C.C.C.C.C.p.p.l.;.' W ` m A b r } #.#.7.0.0.p.C.C.7.C.C.C.C.C.C.C.C.",
"C.C.C.C.C.C.C.C.p.C.l.p.C.C.p.#.' 7.+.#.' Y #.#.;.0.C.p.l.C.C.p.C.C.C.C.C.C.C.C.",
"C.C.C.C.C.C.C.C.C.C.C.p.C.C.p.=. .l.=.#. .' 7.} =.p.C.l.p.C.C.C.C.C.C.C.C.C.C.C.",
"C.C.C.C.C.C.C.C.C.C.C.p.p.l.;.} ' 7.' Q '  .0.' #.0.C.p.0.p.C.C.C.C.C.C.C.C.C.C.",
"C.C.C.C.C.C.C.C.C.C.0.7.C.C.;.Y ` ;.;.} ` +.+.W 0.0.p.p.l.C.C.C.C.C.C.C.C.C.C.C.",
"C.C.C.C.C.C.C.C.l.C.C.l.C.7.D O r A Y Y U A m m 0.0.p.p.l.C.C.C.C.C.C.C.C.C.C.C.",
"C.C.C.C.C.C.C.C.0.p.C.C.C.p.` w - # 2 U A $ $ A 0.p.p.p.l.C.C.C.C.C.C.C.C.C.C.C.",
"C.C.C.C.C.C.C.C.C.l.0.p.C.C.C.7.A O $ Y D X - #.p.p.p.p.l.C.C.C.C.C.C.C.C.C.C.C.",
"C.C.C.C.C.C.C.C.C.C.0.7.0.0.p.p. .- # A m O b C.p.p.p.p.l.l.C.C.C.C.C.C.C.C.C.C.",
"C.C.C.C.C.C.C.C.C.p.p.C.C.0.0.p.;.b * b b : U C.p.p.l.l.l.l.l.l.C.C.C.C.C.C.C.C.",
"C.C.C.C.C.C.C.C.0.0.l.C.C.l.l.C.p.' U W ` Q +.l.l.l.l.l.l.p.p.p.C.C.C.C.C.C.C.C.",
"C.C.C.C.C.C.C.C.C.p.p.C.p.=.;.V.C.l.;.7.p.C.C.l.l.l.l.l.l.p.p.p.C.C.C.C.C.C.C.C."
};
