/* XPM */
static char *_8f114d2bdd84e2c82c0dd28bdab5559jVwURebKqqDSAFix[] = {
/* columns rows colors chars-per-pixel */
"48 48 236 2 ",
"   c #000400",
".  c #000B02",
"X  c #0A0D07",
"o  c #02130A",
"O  c #051C0C",
"+  c #14160B",
"@  c #081D14",
"#  c #131A18",
"$  c #1B1D12",
"%  c #002407",
"&  c #003707",
"*  c #002214",
"=  c #002C14",
"-  c #02261B",
";  c #022D1D",
":  c #13231D",
">  c #1F2116",
",  c #033917",
"<  c #173A1B",
"1  c #202217",
"2  c #25271C",
"3  c #0A2C23",
"4  c #182E26",
"5  c #043324",
"6  c #0D3425",
"7  c #0D3B24",
"8  c #073A28",
"9  c #17382B",
"0  c #1E3D33",
"q  c #2B2D22",
"w  c #202B25",
"e  c #2F3126",
"r  c #263527",
"t  c #34362B",
"y  c #243B33",
"u  c #3C3E33",
"i  c #00410D",
"p  c #0D401C",
"a  c #004C1B",
"s  c #004715",
"d  c #12441E",
"f  c #00521B",
"g  c #054A27",
"h  c #174826",
"j  c #015322",
"k  c #005A24",
"l  c #0B542D",
"z  c #035C2C",
"x  c #095729",
"c  c #13572C",
"v  c #0D4B32",
"b  c #1C4435",
"n  c #184A38",
"m  c #0E5D32",
"M  c #045D31",
"N  c #1C543B",
"B  c #165837",
"V  c #224B3D",
"C  c #2C473E",
"Z  c #38433A",
"A  c #255A37",
"S  c #294F2E",
"D  c #02622C",
"F  c #09602D",
"G  c #006027",
"H  c #016332",
"J  c #0D6532",
"K  c #056B33",
"L  c #0A6C35",
"P  c #0D6E38",
"I  c #096438",
"U  c #136434",
"Y  c #126936",
"T  c #1A653A",
"R  c #1A6C3B",
"E  c #16673A",
"W  c #0C743B",
"Q  c #077037",
"!  c #14733D",
"~  c #2F683F",
"^  c #25683C",
"/  c #454C3E",
"(  c #1C5943",
")  c #2B4B42",
"_  c #3A4E49",
"`  c #225C45",
"'  c #2C5B4B",
"]  c #295947",
"[  c #35584A",
"{  c #355F51",
"}  c #196845",
"|  c #157D45",
" . c #1C764A",
".. c #1B7847",
"X. c #1E7D51",
"o. c #2D6E43",
"O. c #276649",
"+. c #356849",
"@. c #247444",
"#. c #267A49",
"$. c #2B7B4C",
"%. c #25754A",
"&. c #377047",
"*. c #36764B",
"=. c #2A6C52",
"-. c #2E6351",
";. c #356352",
":. c #346C56",
">. c #3B6859",
",. c #2D7454",
"<. c #297E55",
"1. c #337153",
"2. c #3B785A",
"3. c #3B7964",
"4. c #494A4A",
"5. c #434343",
"6. c #42524C",
"7. c #575A55",
"8. c #4D5D52",
"9. c #476859",
"0. c #55635E",
"q. c #43745B",
"w. c #467656",
"e. c #587B5B",
"r. c #64665B",
"t. c #586D65",
"y. c #4C7867",
"u. c #5D7B71",
"i. c #536F65",
"p. c #696A67",
"a. c #716F70",
"s. c #647D77",
"d. c #7B7B77",
"f. c #6F7166",
"g. c #1B834B",
"h. c #1B844B",
"j. c #238554",
"k. c #278A54",
"l. c #348656",
"z. c #2D945C",
"x. c #29804D",
"c. c #358963",
"v. c #3E9562",
"b. c #46865B",
"n. c #468963",
"m. c #518966",
"M. c #52947A",
"N. c #589171",
"B. c #508B74",
"V. c #779A7C",
"C. c #708076",
"Z. c #828479",
"A. c #78918E",
"S. c #7F9794",
"D. c #6F9185",
"F. c #868A86",
"G. c #929489",
"H. c #879E96",
"J. c #9C9D98",
"K. c #8C8E8D",
"L. c #9AA499",
"P. c #96B99A",
"I. c #89A690",
"U. c #A1A398",
"Y. c #9AABA6",
"T. c #8FB3A3",
"R. c #A8ABA7",
"E. c #B1B7AA",
"W. c #A6B6B7",
"Q. c #B3B4B4",
"!. c #B9BAB6",
"~. c #9ECBB7",
"^. c #A5C3B9",
"/. c #BCC1B8",
"(. c #ABD2B7",
"). c #C5C7BC",
"_. c #B8C7C6",
"`. c #BBD2CA",
"'. c #A9D8C8",
"]. c #BCE5D7",
"[. c gray81",
"{. c #C6C8C7",
"}. c #CCD0C9",
"|. c #D3D5CA",
" X c #D7D9CE",
".X c #C4D7D3",
"XX c #DBDDD2",
"oX c #DCDDDD",
"OX c #D7D6D6",
"+X c #D3CDCF",
"@X c #E1DBDD",
"#X c #D9E4D6",
"$X c #C9EADF",
"%X c #E4E5DC",
"&X c #E5E7DC",
"*X c #D3DDE7",
"=X c #F3DBF2",
"-X c #FDDEF8",
";X c #E4DEE0",
":X c #DDE4E3",
">X c #D2EAE6",
",X c #DCEDF3",
"<X c #CFEFE4",
"1X c #E5E5E5",
"2X c #EBECE2",
"3X c #EDEDED",
"4X c #E8E5E6",
"5X c #F5EBEE",
"6X c #EFF1E6",
"7X c #E5F2ED",
"8X c #EBF0EC",
"9X c #ECFBED",
"0X c #F0F2E7",
"qX c #F3F4EB",
"wX c #F7F9EE",
"eX c #F8FAEF",
"rX c #ECE5F5",
"tX c #E5EBF8",
"yX c #E7E8F7",
"uX c #F5ECF2",
"iX c #F9EEF2",
"pX c #FEE5FD",
"aX c #FEEBFE",
"sX c #F6E5F7",
"dX c #EDF6F3",
"fX c #EFF4FF",
"gX c #EEFDF9",
"hX c #E7F9F3",
"jX c #F4F4F4",
"kX c #FCF4F7",
"lX c #FCFDF5",
"zX c #F3F3FC",
"xX c #FDF5F9",
"cX c #F4FCFA",
"vX c None",
"bX c #F7FCF1",
/* pixels */
"vXvXvXvXvXvXvXvXvXvXvXvXvXvXvXxXxXaXpXsXsXzXlXvXtXzXxXaX=X=XpXxXxXvXvXvXvXvXvXvXvXvXvXvXvXvXvXvX",
"vXvXvXvXvXvXvXvXvXvXvXvXvXvXvXxXpX-XpXaXxXvXfXtX*XyXyXaXaXaXaXaXxXvXvXvXvXvXvXvXvXvXvXvXvXvXvXvX",
"vXvXvXvXvXvXvXvXvXvXvXvXvXvXvXxXpX-X=XaXxXlXcXtXfXtXyXrXaXaXaXaXxXvXvXvXvXvXvXvXvXvXvXvXvXvXvXvX",
"vXvXvXvXvXvXvXvXvXvXvXvXvXvXvXxXxXaXsXsXlXvXcX,XcXcXvXzXrX=XpXxXxXvXvXvXvXvXvXvXvXvXvXvXvXvXvXvX",
"vXvXvXvXvXvXvXvXvXvXvXvXvXvXvXvXxXxXxXxXzX*XW.S._.,XcXvXlXsXaXxXvXvXvXvXvXvXvXvXvXvXvXvXvXvXvXvX",
"vXvXvXvXvXvXvXvXvXvXvXvXvXvXvXvXuXxXlXcX.XA._ 3 [ A.>XcXvXlXxXuXvXvXvXvXvXvXvXvXvXvXvXvXvXvXvXvX",
"vXvXvXvXvXvXvXvXvXvXvXvXvXvXvXvXzXzX:XW.s.) 9 6 3 ) s._.gXvXvX4XvXvXvXvXvXvXvXvXvXvXvXvXvXvXvXvX",
"vXvXvXvXvXvXvXvXvXvXvXvXvXvXvXvXvXdXW.i.3 ; ;.D.] 5 - [ Y.7XcX8XvXvXvXvXvXvXvXvXvXvXvXvXvXvXvXvX",
"vXvXvXvXvXvXvXvXvXlXlX3XoX3XjX1X7Xt.o 6 ] n ` B.:.:.] 7 6 9.`.cXoXoX1XvXlXlXjXoXvXvXvXvXvXvXvXvX",
"vXvXvXvXvXvXvXvX3XlXlXjX3XjX3X}.9.9 6 ;.2.O.B =.O.=.O.n 5 b i.H.jXvXlXvX3X3XjXlXvXvXvXvXvXvXvXvX",
"vXvXvXvXvXvXvXvX3XvXvXjXjX1XQ.A.. 7 ;.y.2.O.} } } } =.O.N 7 7 4 !.oXlXlX3XoX3XlXvXvXvXvXvXvXvXvX",
"vXvXvXvXvXvXvXvXvXjXjXvX3X!.p.w 9 q.m.O.l } <.<.} } %.,.1.O.n 9 Z d.[.lXlXdX1X1XvXvXvXvXvXvXvXvX",
"vXvXvXvXvXvXvXvXlXvXvXlX3XR.4.. w.N.2.g ,  .c.X.j. .} } 1.2.2.9.o 4.J.1XlXlX3XoXvXvXvXvXvXvXvXvX",
"vXvXvXvXvXvXvXvXvXjXlXlXjXR.7.: A o.T a j  .X.H j...I M U O.1.w.y 7.J.[.jXvXvXjXvXvXvXvXvXvXvXvX",
"vXvXvXvXvXvXvXvXjX3XvXlXoXF.5.4 7 g l l z H H k H H H z x l B A r p.Q.oX3X3XjXlXvXvXvXvXvXvXvXvX",
"vXvXvXvXvXvXvXvXjX3XdXdX/.t.4 O N c B U j s a K & a D J J x g h . 7.{.vXvX1X3XvXvXvXvXvXvXvXvXvX",
"vXvXxXxXxXxXxXxXlXlXvXY.0 b >.N B T @.$.#.@.....a Y $.$.R T $.n.' ) ) t.{.vXlX1XxXxXxXvXvXvXcXcX",
"vXvXxXxXxXxXxXxXjX3XgX^.b ; :.M.%.R R @.l.l.#.Y #.x.l.$.R R $.n.2.6 ; u..XcXvXuXxXxXxXvXvXcXgXgX",
"vXvXxXxXxXxXxXxX@XOXcX.X' * ( M.<.Y k J x.l.R j v.l.#.Y J Y ..$.2.O * H.hX8XoXuXxXxXxXvXvXcXgXgX",
"vXvXxXxXxXxXxXxX;X:XcX`.;.5 v g R D k k J L k a #.! D k k z z x N * 9 T.gXcX4X5XxXxXxXvXvXcXgXgX",
"vXvXxXxXxXxXxXxXlX1X_.s.9 ` =.= z K W K j f k D k k k G K D k a v b V 9.L.:XlXxXxXxXxXvXvXcXcXgX",
"vXvXxXxXxXxXxXxXlXQ.0.4 - :.M.} I | k.| G k L k.f k L | | W K z ( { b o 4 K.4XlXxXxXxXvXvXcXcXgX",
"vXvXxXxXxXxXxXxXlX7.o ) { -.3.c...g.h.| Q Q g.z.G W h.h.| W W  .O.' V 3 @ u J.iXxXxXxXvXvXcXcXgX",
"vXvXxXxXxXxXxXxX@XX   S.T.( 8 ,...W L L W | h.h.K g.k.g.K G W k.` V >.s.6.# 7.{.xXxXxXvXvXcXcXgX",
"vXvXxXxXxXxXxXxXQ.F.6.y V ' ( g M K W | g.g.g.g.k.k.z.z.z.k.g. .:.y.D.u.:   a.lXuXiXxXxXlXcXcXgX",
"vXvXxXxXxXxXxXxXlXR._ 9 b n ( } l.j...! P L P P & i s f k G D J -.' b 9 _ F.{.4XuXiXxXxXlXcXcXgX",
"vXvXxXxXxXxXxXxXlXY.y 9 b 8 8 B m k a i i a z U J J F F F J Y T ; 7 * . _ _.lX5XuXiXxXxXlXcXcXgX",
"vXvXxXxXxXxXxXxX+X4.. C y.` v ,.m x a a j x T ^ @.R U x x x m B 8 q.y.0 @ 7.{.lXuXiXxXxXlXcXcXgX",
"vXvXxXxXxXxXxXxXK.#   y y.:.=.M.n.b.b.b.b.2.*.*.*.*.o.o.o.*.l.n.:.B.D.9.    p.lX5XiXxXvXlXcXcXgX",
"vXvXxXxXxXxXxXxXOXp.: 4 9 = ; B g h A ~ &.&.&.&.m.b.w.&.~ ^ A A 8 O * 9 : # d.xX5XiXxXvXlXcXcXgX",
"vXvXxXxXxXxXxXxXlXoXH.s.>.n g v p p p d h h S A h h d p , & % % h 5 6 [ s.R.OXxX5XiXxXvXlXcXcXgX",
"vXvXxXxXxXxXxXxXlXlXvXhX<X].'.~.(.P.V.e.~ S h < < h [ e.V.I.P.P.^.$X<X`.#XvXlXkX5XiXvXvXlXvXcXcX",
"vXvXvXvXvXvXvXvXjXjXjXdXdXdXhX9X#X9XlXbXL.Z r / r + E.bX#X#XlX#X7X7X8X8X3X3X3X3XvXvXvXvXvXvXvXvX",
"vXvXvXvXvXvXvXvXjXjXjXjXjXjXjXjX6XqXlXeXJ.t 2 7.e $ R.lX X%XlX&X3X3X3X3X3X3X3X3XvXjXvXvXvXvXvXvX",
"vXvXvXvXvXvXvXvXjXjXjXjXjXjXjXjXlX2XeXlXU.2 $ r.e 1 L.lXXX&XlX2XqXjXjXjXjXjXjXjXvXvXvXvXvXvXvXvX",
"vXvXvXvXvXvXvXvXjXjXjXjXjXjXjXjXlX2XbXlXR.2 + p.2 2 G.qX0XeXlX2XjXjXjXjXjXjXjXjXvXvXvXvXvXvXvXvX",
"vXvXvXvXvXvXvXvXvXvXvXvXvXvXvXvXlX6XlXlXE.q + 7.1 e Z.%XlXlXbX&XjXjXjXjXjXjXjXjXvXvXvXvXvXvXvXvX",
"vXvXvXvXvXvXvXvXvXvXvXvXvXvXvXvXqXeXlXqXG.q $ / 1 e r.E.qXbX2X2XjXjXjXjXjXjXjXjXvXvXvXvXvXvXvXvX",
"vXvXvXvXvXvXvXvXlXlXlXlXlXlXlXlX&XlXlX!.7.> > t q q t f.).#XXXbXjXjXjXjXjXvXjXjXvXvXvXvXvXvXvXvX",
"vXvXvXvXvXvXvXvXlXlXlXlXlXlXlXlX%XlXqXF.q + 2 e t q + u U.).|.lXvXvXjXvXvXvXvXvXvXvXvXvXvXvXvXvX",
"vXvXvXvXvXvXvXvXvXvXvXvXvXvXvXvX|.lX2XZ.7.C.r.X 7.|.eXU.d.).eX6XvXvXvXvXvXvXvXvXvXvXvXvXvXvXvXvX",
"vXvXvXvXvXvXvXvXvXvXvXvXvXvXvXvX2XlXlX}./.%X XU.).lXlX|.).eXlXlXvXvXvXvXvXvXvXvXvXvXvXvXvXvXvXvX",
"vXvXvXvXvXvXvXvXvXvXvXvXvXvXvXvXqXlXlXqXeXlXlXbXlXlXqX%X0XlXlXwXvXvXvXvXvXvXvXvXvXvXvXvXvXvXvXvX",
"vXvXvXvXvXvXvXvXvXvXvXvXvXvXvXvXeX2X2XeXeX2X2XeXlX2XXX&XeXqX2X2XvXvXvXvXvXvXvXvXvXvXvXvXvXvXvXvX",
"vXvXvXvXvXvXvXvXvXvXvXvXvXvXvXvXlXbXwXlXlX&X%XeXlX2X2XlXlX0XqXlXvXvXvXvXvXvXvXvXvXvXvXvXvXvXvXvX",
"vXvXvXvXvXvXvXvXvXvXvXvXvXvXvXvXlXlXlXlXlXeXwXlX&X2XeXlXbX2XbXlXvXvXvXvXvXvXvXvXvXvXvXvXvXvXvXvX",
"vXvXvXvXvXvXvXvXvXvXvXvXvXvXvXvXqXbXbXqXqXlXlXqXXX2XeX6X2XqXbXwXvXvXvXvXvXvXvXvXvXvXvXvXvXvXvXvX",
"vXvXvXvXvXvXvXvXvXvXvXvXvXvXvXvXwXlXlX0X6XlXlX2X0XlXlX0XeXlXlX2XvXvXvXvXvXvXvXvXvXvXvXvXvXvXvXvX"
};
